<svg width="20" height="20" viewBox="0 0 20 20" fill="none" xmlns="http://www.w3.org/2000/svg">
<path fill-rule="evenodd" clip-rule="evenodd" d="M5.36573 0.201464L7.07787 0.302178C10.3007 0.503607 16.2429 0.805749 17.5522 1.00718C19.1636 1.30932 19.365 3.12218 17.3507 3.22289H17.0486C14.0272 3.42432 5.1643 3.72646 2.94859 3.22289C0.732875 2.82003 0.0278752 1.71218 0.531446 1.00718C0.934303 0.302178 2.04216 3.54201e-05 5.36573 0.201464ZM4.4593 8.9636C6.37287 8.9636 15.6386 9.46717 17.25 9.6686C18.8614 9.87003 18.8614 11.1793 16.7464 11.28L15.2357 11.3807C11.5093 11.6829 4.56002 12.1865 2.64645 11.7836C0.430732 11.3807 0.229304 10.2729 0.330018 9.97074C0.531446 9.6686 1.13573 8.86289 4.4593 8.9636ZM18.4586 18.1286C16.8472 17.9272 7.9843 17.7257 6.07073 17.7257C2.64645 17.7257 1.84073 17.8265 1.53859 18.4307C1.33716 18.8336 0.934303 19.74 3.15002 19.8407C6.07073 20.0422 15.7393 19.9415 18.3579 19.8407C20.3722 19.74 20.07 18.2293 18.4586 18.1286Z" fill="#404040"/>
</svg>
