<svg width="39" height="39" viewBox="0 0 39 39" fill="none" xmlns="http://www.w3.org/2000/svg">
<path d="M19.0998 0C8.55135 0 0 8.55135 0 19.0998C0 29.6483 8.55135 38.1997 19.0998 38.1997C29.6483 38.1997 38.1997 29.6483 38.1997 19.0998C38.1987 8.55135 29.6474 0 19.0998 0ZM24.3867 27.3115C22.6686 27.3115 21.0737 26.7833 19.755 25.8808C20.4437 25.277 21.0401 24.5696 21.5198 23.7838C22.3541 24.2952 23.3368 24.5911 24.3876 24.5911C27.4207 24.5911 29.8798 22.132 29.8798 19.0989C29.8798 16.0659 27.4207 13.6067 24.3876 13.6067C22.9392 13.6067 21.6224 14.1676 20.6406 15.0841V16.2954C20.649 16.2842 20.6565 16.273 20.6649 16.2628V23.6261C20.6565 23.6382 20.6481 23.6494 20.6406 23.6616V23.6924H20.6201C19.1446 25.8752 16.6473 27.3115 13.813 27.3115C9.27741 27.3115 5.60135 23.6345 5.60135 19.0998C5.60135 14.5652 9.27835 10.8882 13.813 10.8882C15.5311 10.8882 17.126 11.4164 18.4447 12.3189C17.756 12.9227 17.1596 13.6301 16.6809 14.4149C15.8465 13.9035 14.8638 13.6077 13.813 13.6077C10.7799 13.6077 8.32083 16.0668 8.32083 19.0998C8.32083 22.1329 10.7799 24.592 13.813 24.592C15.4471 24.592 16.9151 23.8781 17.9212 22.7442V21.3452V14.0566V14.0379C19.4246 12.1201 21.7624 10.8882 24.3876 10.8882C28.9232 10.8882 32.6002 14.5652 32.6002 19.0998C32.6002 23.6345 28.9223 27.3115 24.3867 27.3115Z" fill="#404040"/>
</svg>
